<svg width="22" height="22" viewBox="0 0 22 22" fill="none" xmlns="http://www.w3.org/2000/svg">
<path fill-rule="evenodd" clip-rule="evenodd" d="M4.61035 6.6523C4.61035 6.18223 4.79709 5.73141 5.12948 5.39901C5.46188 5.06662 5.9127 4.87988 6.38277 4.87988H15.2449C15.715 4.87988 16.1658 5.06662 16.4982 5.39901C16.8306 5.73141 17.0173 6.18223 17.0173 6.6523V15.5144C17.0173 15.9845 16.8306 16.4353 16.4982 16.7677C16.1658 17.1001 15.715 17.2868 15.2449 17.2868H6.38277C5.9127 17.2868 5.46188 17.1001 5.12948 16.7677C4.79709 16.4353 4.61035 15.9845 4.61035 15.5144V6.6523ZM14.3587 7.53852H7.26898V14.6282L10.8138 12.8558L14.3587 14.6282V7.53852Z" fill="#47D16C"/>
</svg>
