<svg width="22" height="22" viewBox="0 0 22 22" fill="none" xmlns="http://www.w3.org/2000/svg">
<path fill-rule="evenodd" clip-rule="evenodd" d="M5.79756 16.1408C5.63142 15.9746 5.53809 15.7492 5.53809 15.5142C5.53809 15.2792 5.63142 15.0539 5.79756 14.8877L10.2286 10.4566C10.3948 10.2905 10.6202 10.1971 10.8552 10.1971C11.0902 10.1971 11.3155 10.2905 11.4817 10.4566L15.9128 14.8877C16.0742 15.0548 16.1635 15.2787 16.1615 15.511C16.1595 15.7434 16.0663 15.9657 15.902 16.13C15.7377 16.2943 15.5154 16.3875 15.283 16.3895C15.0507 16.3915 14.8268 16.3022 14.6597 16.1408L10.8552 12.3363L7.05066 16.1408C6.88447 16.3069 6.6591 16.4002 6.42411 16.4002C6.18912 16.4002 5.96375 16.3069 5.79756 16.1408ZM5.79756 10.8235C5.63142 10.6573 5.53809 10.432 5.53809 10.197C5.53809 9.96197 5.63142 9.7366 5.79756 9.57041L10.2286 5.13935C10.3948 4.97321 10.6202 4.87988 10.8552 4.87988C11.0902 4.87988 11.3155 4.97321 11.4817 5.13935L15.9128 9.57041C16.0742 9.73755 16.1635 9.96141 16.1615 10.1938C16.1595 10.4261 16.0663 10.6484 15.902 10.8127C15.7377 10.977 15.5154 11.0702 15.283 11.0722C15.0507 11.0743 14.8268 10.9849 14.6597 10.8235L10.8552 7.01901L7.05066 10.8235C6.88447 10.9896 6.6591 11.083 6.42411 11.083C6.18912 11.083 5.96375 10.9896 5.79756 10.8235Z" fill="#F76659"/>
</svg>
