<svg width="19" height="19" viewBox="0 0 19 19" fill="none" xmlns="http://www.w3.org/2000/svg">
<path fill-rule="evenodd" clip-rule="evenodd" d="M2.85872 14.5573C-0.353296 11.3453 -0.353296 6.13763 2.85872 2.92561C6.07073 -0.286402 11.2784 -0.286402 14.4904 2.92561C17.4263 5.86148 17.6787 10.4646 15.2477 13.6872L18.4929 16.9324C19.3394 17.779 18.0696 19.0488 17.223 18.2022L14.0167 14.9959C10.7852 17.762 5.91722 17.6158 2.85872 14.5573ZM13.221 4.19549C10.7103 1.68479 6.63967 1.68479 4.12897 4.19549C1.61826 6.70619 1.61826 10.7768 4.12897 13.2875C6.63967 15.7982 10.7103 15.7982 13.221 13.2875C15.7317 10.7768 15.7317 6.70619 13.221 4.19549Z" fill="#777E91"/>
</svg>
