<svg width="20" height="19" viewBox="0 0 20 19" fill="none" xmlns="http://www.w3.org/2000/svg">
<path fill-rule="evenodd" clip-rule="evenodd" d="M3.29784 14.853C0.0537135 11.6089 0.0537135 6.3491 3.29784 3.10497C6.54197 -0.139158 11.8017 -0.139158 15.0459 3.10497C18.011 6.07011 18.266 10.7191 15.8109 13.9739L19.0891 17.2521L19.0893 17.2523C19.9443 18.1073 18.6618 19.3898 17.8067 18.5348L17.8066 18.5346L14.5676 15.2957C11.3039 18.0897 6.38701 17.9422 3.29784 14.853ZM13.7639 4.38799C11.2281 1.85218 7.11677 1.85218 4.58096 4.38799C2.04516 6.92379 2.04516 11.0351 4.58096 13.5709C7.11677 16.1068 11.2281 16.1068 13.7639 13.5709C16.2997 11.0351 16.2997 6.92379 13.7639 4.38799Z" fill="#777E91"/>
</svg>
