<svg width="20" height="20" viewBox="0 0 20 20" fill="none" xmlns="http://www.w3.org/2000/svg">
<path d="M17.7303 6.04447C17.6516 5.8549 17.501 5.70426 17.3114 5.62554C17.2181 5.58579 17.118 5.5647 17.0166 5.56348H13.1376C12.9319 5.56348 12.7345 5.64521 12.589 5.7907C12.4436 5.93619 12.3618 6.13352 12.3618 6.33927C12.3618 6.54503 12.4436 6.74235 12.589 6.88784C12.7345 7.03333 12.9319 7.11507 13.1376 7.11507H15.1469L10.8102 11.4518L8.25786 8.89164C8.18574 8.81893 8.09994 8.76121 8.0054 8.72183C7.91086 8.68244 7.80946 8.66216 7.70704 8.66216C7.60463 8.66216 7.50323 8.68244 7.40869 8.72183C7.31415 8.76121 7.22835 8.81893 7.15623 8.89164L2.50145 13.5464C2.42874 13.6185 2.37102 13.7043 2.33164 13.7989C2.29225 13.8934 2.27197 13.9948 2.27197 14.0972C2.27197 14.1996 2.29225 14.3011 2.33164 14.3956C2.37102 14.4901 2.42874 14.5759 2.50145 14.6481C2.57357 14.7208 2.65938 14.7785 2.75391 14.8179C2.84845 14.8573 2.94985 14.8775 3.05227 14.8775C3.15468 14.8775 3.25608 14.8573 3.35062 14.8179C3.44516 14.7785 3.53096 14.7208 3.60308 14.6481L7.70704 10.5363L10.2594 13.0965C10.3315 13.1692 10.4173 13.2269 10.5119 13.2663C10.6064 13.3057 10.7078 13.3259 10.8102 13.3259C10.9126 13.3259 11.014 13.3057 11.1086 13.2663C11.2031 13.2269 11.2889 13.1692 11.361 13.0965L16.2408 8.20894V10.2183C16.2408 10.424 16.3225 10.6213 16.468 10.7668C16.6135 10.9123 16.8108 10.9941 17.0166 10.9941C17.2224 10.9941 17.4197 10.9123 17.5652 10.7668C17.7107 10.6213 17.7924 10.424 17.7924 10.2183V6.33927C17.7912 6.23789 17.7701 6.13774 17.7303 6.04447Z" fill="#83BF6E"/>
</svg>
