<svg width="9" height="9" viewBox="0 0 9 9" fill="none" xmlns="http://www.w3.org/2000/svg">
<path d="M7.73679 2.4259C7.70257 2.34349 7.63708 2.278 7.55467 2.24378C7.51412 2.2265 7.47058 2.21733 7.42651 2.2168H5.74021C5.65076 2.2168 5.56498 2.25233 5.50173 2.31558C5.43848 2.37883 5.40295 2.46461 5.40295 2.55406C5.40295 2.6435 5.43848 2.72929 5.50173 2.79254C5.56498 2.85579 5.65076 2.89132 5.74021 2.89132H6.61371L4.72843 4.77661L3.61884 3.66365C3.58749 3.63203 3.55018 3.60694 3.50909 3.58982C3.46799 3.5727 3.42391 3.56388 3.37938 3.56388C3.33486 3.56388 3.29078 3.5727 3.24968 3.58982C3.20858 3.60694 3.17128 3.63203 3.13993 3.66365L1.11636 5.68721C1.08475 5.71856 1.05966 5.75586 1.04254 5.79696C1.02542 5.83806 1.0166 5.88214 1.0166 5.92666C1.0166 5.97119 1.02542 6.01527 1.04254 6.05637C1.05966 6.09747 1.08475 6.13477 1.11636 6.16612C1.14772 6.19773 1.18502 6.22282 1.22612 6.23994C1.26721 6.25707 1.3113 6.26588 1.35582 6.26588C1.40034 6.26588 1.44442 6.25707 1.48552 6.23994C1.52662 6.22282 1.56392 6.19773 1.59527 6.16612L3.37938 4.37864L4.48897 5.4916C4.52032 5.52321 4.55762 5.5483 4.59872 5.56542C4.63982 5.58254 4.6839 5.59136 4.72843 5.59136C4.77295 5.59136 4.81703 5.58254 4.85813 5.56542C4.89923 5.5483 4.93653 5.52321 4.96788 5.4916L7.08925 3.36686V4.24036C7.08925 4.32981 7.12478 4.41559 7.18803 4.47884C7.25128 4.54209 7.33706 4.57762 7.42651 4.57762C7.51596 4.57762 7.60174 4.54209 7.66499 4.47884C7.72824 4.41559 7.76377 4.32981 7.76377 4.24036V2.55406C7.76324 2.50999 7.75407 2.46644 7.73679 2.4259Z" fill="#83BF6E"/>
</svg>
