<svg width="9" height="9" viewBox="0 0 9 9" fill="none" xmlns="http://www.w3.org/2000/svg">
<path d="M7.8613 2.71496C7.82708 2.63255 7.76159 2.56706 7.67918 2.53284C7.63864 2.51556 7.5951 2.50639 7.55102 2.50586H5.86472C5.77527 2.50586 5.68949 2.54139 5.62624 2.60464C5.56299 2.66789 5.52746 2.75367 5.52746 2.84312C5.52746 2.93257 5.56299 3.01835 5.62624 3.0816C5.68949 3.14485 5.77527 3.18038 5.86472 3.18038H6.73823L4.85294 5.06567L3.74335 3.95271C3.712 3.9211 3.6747 3.89601 3.6336 3.87888C3.5925 3.86176 3.54842 3.85295 3.50389 3.85295C3.45937 3.85295 3.41529 3.86176 3.37419 3.87888C3.33309 3.89601 3.29579 3.9211 3.26444 3.95271L1.24087 5.97627C1.20926 6.00763 1.18417 6.04493 1.16705 6.08602C1.14993 6.12712 1.14111 6.1712 1.14111 6.21573C1.14111 6.26025 1.14993 6.30433 1.16705 6.34543C1.18417 6.38653 1.20926 6.42383 1.24087 6.45518C1.27223 6.48679 1.30953 6.51188 1.35063 6.52901C1.39173 6.54613 1.43581 6.55494 1.48033 6.55494C1.52485 6.55494 1.56893 6.54613 1.61003 6.52901C1.65113 6.51188 1.68843 6.48679 1.71978 6.45518L3.50389 4.6677L4.61348 5.78066C4.64483 5.81227 4.68214 5.83736 4.72323 5.85448C4.76433 5.87161 4.80841 5.88042 4.85294 5.88042C4.89746 5.88042 4.94154 5.87161 4.98264 5.85448C5.02374 5.83736 5.06104 5.81227 5.09239 5.78066L7.21376 3.65592V4.52942C7.21376 4.61887 7.2493 4.70465 7.31254 4.7679C7.37579 4.83115 7.46158 4.86668 7.55102 4.86668C7.64047 4.86668 7.72625 4.83115 7.7895 4.7679C7.85275 4.70465 7.88828 4.61887 7.88828 4.52942V2.84312C7.88775 2.79905 7.87859 2.75551 7.8613 2.71496Z" fill="#FD5F69"/>
</svg>
