<svg width="9" height="9" viewBox="0 0 9 9" fill="none" xmlns="http://www.w3.org/2000/svg">
<path d="M7.7363 2.71496C7.70208 2.63255 7.63659 2.56706 7.55418 2.53284C7.51364 2.51556 7.4701 2.50639 7.42602 2.50586H5.73972C5.65027 2.50586 5.56449 2.54139 5.50124 2.60464C5.43799 2.66789 5.40246 2.75367 5.40246 2.84312C5.40246 2.93257 5.43799 3.01835 5.50124 3.0816C5.56449 3.14485 5.65027 3.18038 5.73972 3.18038H6.61323L4.72794 5.06567L3.61835 3.95271C3.587 3.9211 3.5497 3.89601 3.5086 3.87888C3.4675 3.86176 3.42342 3.85295 3.37889 3.85295C3.33437 3.85295 3.29029 3.86176 3.24919 3.87888C3.20809 3.89601 3.17079 3.9211 3.13944 3.95271L1.11587 5.97627C1.08426 6.00763 1.05917 6.04493 1.04205 6.08602C1.02493 6.12712 1.01611 6.1712 1.01611 6.21573C1.01611 6.26025 1.02493 6.30433 1.04205 6.34543C1.05917 6.38653 1.08426 6.42383 1.11587 6.45518C1.14723 6.48679 1.18453 6.51188 1.22563 6.52901C1.26673 6.54613 1.31081 6.55494 1.35533 6.55494C1.39985 6.55494 1.44393 6.54613 1.48503 6.52901C1.52613 6.51188 1.56343 6.48679 1.59478 6.45518L3.37889 4.6677L4.48848 5.78066C4.51983 5.81227 4.55714 5.83736 4.59823 5.85448C4.63933 5.87161 4.68341 5.88042 4.72794 5.88042C4.77246 5.88042 4.81654 5.87161 4.85764 5.85448C4.89874 5.83736 4.93604 5.81227 4.96739 5.78066L7.08876 3.65592V4.52942C7.08876 4.61887 7.1243 4.70465 7.18754 4.7679C7.25079 4.83115 7.33658 4.86668 7.42602 4.86668C7.51547 4.86668 7.60125 4.83115 7.6645 4.7679C7.72775 4.70465 7.76328 4.61887 7.76328 4.52942V2.84312C7.76275 2.79905 7.75359 2.75551 7.7363 2.71496Z" fill="#83BF6E"/>
</svg>
