<svg width="9" height="9" viewBox="0 0 9 9" fill="none" xmlns="http://www.w3.org/2000/svg">
<path d="M7.7363 3.13684C7.70208 3.05443 7.63659 2.98894 7.55418 2.95472C7.51364 2.93743 7.4701 2.92827 7.42602 2.92773H5.73972C5.65027 2.92773 5.56449 2.96327 5.50124 3.02652C5.43799 3.08976 5.40246 3.17555 5.40246 3.265C5.40246 3.35444 5.43799 3.44023 5.50124 3.50347C5.56449 3.56672 5.65027 3.60226 5.73972 3.60226H6.61323L4.72794 5.48754L3.61835 4.37458C3.587 4.34297 3.5497 4.31788 3.5086 4.30076C3.4675 4.28364 3.42342 4.27482 3.37889 4.27482C3.33437 4.27482 3.29029 4.28364 3.24919 4.30076C3.20809 4.31788 3.17079 4.34297 3.13944 4.37458L1.11587 6.39815C1.08426 6.4295 1.05917 6.4668 1.04205 6.5079C1.02493 6.549 1.01611 6.59308 1.01611 6.6376C1.01611 6.68212 1.02493 6.72621 1.04205 6.7673C1.05917 6.8084 1.08426 6.8457 1.11587 6.87706C1.14723 6.90867 1.18453 6.93376 1.22563 6.95088C1.26673 6.968 1.31081 6.97682 1.35533 6.97682C1.39985 6.97682 1.44393 6.968 1.48503 6.95088C1.52613 6.93376 1.56343 6.90867 1.59478 6.87706L3.37889 5.08958L4.48848 6.20254C4.51983 6.23415 4.55714 6.25924 4.59823 6.27636C4.63933 6.29348 4.68341 6.3023 4.72794 6.3023C4.77246 6.3023 4.81654 6.29348 4.85764 6.27636C4.89874 6.25924 4.93604 6.23415 4.96739 6.20254L7.08876 4.07779V4.9513C7.08876 5.04075 7.1243 5.12653 7.18754 5.18978C7.25079 5.25303 7.33658 5.28856 7.42602 5.28856C7.51547 5.28856 7.60125 5.25303 7.6645 5.18978C7.72775 5.12653 7.76328 5.04075 7.76328 4.9513V3.265C7.76275 3.22092 7.75359 3.17738 7.7363 3.13684Z" fill="#83BF6E"/>
</svg>
