<svg width="121" height="24" viewBox="0 0 121 24" fill="none" xmlns="http://www.w3.org/2000/svg">
<path d="M12.4998 17.2698L16.6498 19.7798C17.4098 20.2398 18.3398 19.5598 18.1398 18.6998L17.0398 13.9798L20.7098 10.7998C21.3798 10.2198 21.0198 9.11977 20.1398 9.04977L15.3098 8.63977L13.4198 4.17977C13.0798 3.36977 11.9198 3.36977 11.5798 4.17977L9.68983 8.62977L4.85983 9.03977C3.97983 9.10977 3.61983 10.2098 4.28983 10.7898L7.95983 13.9698L6.85983 18.6898C6.65983 19.5498 7.58983 20.2298 8.34983 19.7698L12.4998 17.2698Z" fill="#747E87"/>
<path d="M36.4998 17.2698L40.6498 19.7798C41.4098 20.2398 42.3398 19.5598 42.1398 18.6998L41.0398 13.9798L44.7098 10.7998C45.3798 10.2198 45.0198 9.11977 44.1398 9.04977L39.3098 8.63977L37.4198 4.17977C37.0798 3.36977 35.9198 3.36977 35.5798 4.17977L33.6898 8.62977L28.8598 9.03977C27.9798 9.10977 27.6198 10.2098 28.2898 10.7898L31.9598 13.9698L30.8598 18.6898C30.6598 19.5498 31.5898 20.2298 32.3498 19.7698L36.4998 17.2698Z" fill="#747E87"/>
<path d="M60.4998 17.2698L64.6498 19.7798C65.4098 20.2398 66.3398 19.5598 66.1398 18.6998L65.0398 13.9798L68.7098 10.7998C69.3798 10.2198 69.0198 9.11977 68.1398 9.04977L63.3098 8.63977L61.4198 4.17977C61.0798 3.36977 59.9198 3.36977 59.5798 4.17977L57.6898 8.62977L52.8598 9.03977C51.9798 9.10977 51.6198 10.2098 52.2898 10.7898L55.9598 13.9698L54.8598 18.6898C54.6598 19.5498 55.5898 20.2298 56.3498 19.7698L60.4998 17.2698Z" fill="#747E87"/>
<path d="M84.4998 17.2698L88.6498 19.7798C89.4098 20.2398 90.3398 19.5598 90.1398 18.6998L89.0398 13.9798L92.7098 10.7998C93.3798 10.2198 93.0198 9.11977 92.1398 9.04977L87.3098 8.63977L85.4198 4.17977C85.0798 3.36977 83.9198 3.36977 83.5798 4.17977L81.6898 8.62977L76.8598 9.03977C75.9798 9.10977 75.6198 10.2098 76.2898 10.7898L79.9598 13.9698L78.8598 18.6898C78.6598 19.5498 79.5898 20.2298 80.3498 19.7698L84.4998 17.2698Z" fill="#747E87"/>
<path d="M108.5 17.2698L112.65 19.7798C113.41 20.2398 114.34 19.5598 114.14 18.6998L113.04 13.9798L116.71 10.7998C117.38 10.2198 117.02 9.11977 116.14 9.04977L111.31 8.63977L109.42 4.17977C109.08 3.36977 107.92 3.36977 107.58 4.17977L105.69 8.62977L100.86 9.03977C99.9798 9.10977 99.6198 10.2098 100.29 10.7898L103.96 13.9698L102.86 18.6898C102.66 19.5498 103.59 20.2298 104.35 19.7698L108.5 17.2698Z" fill="#747E87"/>
</svg>
