<svg width="32" height="33" viewBox="0 0 32 33" fill="none" xmlns="http://www.w3.org/2000/svg">
<path fill-rule="evenodd" clip-rule="evenodd" d="M6.6665 5.83398C4.45737 5.83398 2.6665 7.62485 2.6665 9.83398V23.1673C2.6665 25.3765 4.45736 27.1673 6.6665 27.1673H25.3332C27.5423 27.1673 29.3332 25.3765 29.3332 23.1673V9.83398C29.3332 7.62485 27.5423 5.83398 25.3332 5.83398H6.6665ZM6.43386 8.52088C6.5094 8.50758 6.58714 8.50065 6.6665 8.50065H25.3332C25.4125 8.50065 25.4903 8.50759 25.5658 8.52088L15.9999 14.8982L6.43386 8.52088ZM5.33317 10.992V23.1673C5.33317 23.9037 5.93012 24.5007 6.6665 24.5007H25.3332C26.0695 24.5007 26.6665 23.9037 26.6665 23.1673V10.992L16.7395 17.6101C16.2916 17.9087 15.7081 17.9087 15.2603 17.6101L5.33317 10.992Z" fill="#B8C0CC"/>
</svg>
