<svg width="21" height="20" viewBox="0 0 21 20" fill="none" xmlns="http://www.w3.org/2000/svg">
<path fill-rule="evenodd" clip-rule="evenodd" d="M10.3335 18C14.7518 18 18.3335 14.4183 18.3335 10C18.3335 5.58172 14.7518 2 10.3335 2C5.91522 2 2.3335 5.58172 2.3335 10C2.3335 14.4183 5.91522 18 10.3335 18ZM14.0406 8.70711C14.4311 8.31658 14.4311 7.68342 14.0406 7.29289C13.6501 6.90237 13.0169 6.90237 12.6264 7.29289L9.3335 10.5858L8.0406 9.29289C7.65008 8.90237 7.01691 8.90237 6.62639 9.29289C6.23587 9.68342 6.23587 10.3166 6.62639 10.7071L8.62639 12.7071C9.01691 13.0976 9.65008 13.0976 10.0406 12.7071L14.0406 8.70711Z" fill="white"/>
</svg>
