<svg width="18" height="19" viewBox="0 0 18 19" fill="none" xmlns="http://www.w3.org/2000/svg">
<g clip-path="url(#clip0_206_7055)">
<mask id="path-1-inside-1_206_7055" fill="white">
<path d="M2.25071 6.93301L13.1401 6.4448C13.2502 6.4398 13.3593 6.46605 13.4551 6.52051C13.5508 6.57497 13.6292 6.65542 13.6811 6.75256C13.733 6.84969 13.7564 6.95954 13.7485 7.0694C13.7406 7.17926 13.7018 7.28464 13.6365 7.37335L7.18137 16.1568C7.11523 16.2469 7.0246 16.3161 6.92025 16.3562C6.81591 16.3963 6.70225 16.4055 6.5928 16.3829C6.48334 16.3602 6.3827 16.3066 6.30285 16.2284C6.223 16.1502 6.1673 16.0506 6.14238 15.9417L5.3097 12.2971C5.29948 12.2524 5.30263 12.2058 5.31877 12.1629C5.3349 12.12 5.3633 12.0828 5.40042 12.056L9.29762 9.23867C9.31385 9.22679 9.32673 9.2109 9.33501 9.19257C9.34329 9.17423 9.34669 9.15407 9.34487 9.13403L9.33864 9.10455C9.3296 9.07984 9.31248 9.0589 9.29004 9.04515C9.26761 9.03139 9.24118 9.02563 9.21506 9.02879L9.18912 9.03472L4.6857 10.708C4.64279 10.7239 4.59617 10.7268 4.55163 10.7163C4.5071 10.7059 4.46661 10.6826 4.43521 10.6493L1.85263 7.91686C1.77576 7.83563 1.72385 7.73402 1.70309 7.62413C1.68233 7.51424 1.69359 7.40069 1.73554 7.29702C1.77748 7.19335 1.84834 7.10392 1.93968 7.03938C2.03102 6.97485 2.13898 6.93792 2.25071 6.93301Z"/>
</mask>
<path d="M2.25071 6.93301L13.1401 6.4448C13.2502 6.4398 13.3593 6.46605 13.4551 6.52051C13.5508 6.57497 13.6292 6.65542 13.6811 6.75256C13.733 6.84969 13.7564 6.95954 13.7485 7.0694C13.7406 7.17926 13.7018 7.28464 13.6365 7.37335L7.18137 16.1568C7.11523 16.2469 7.0246 16.3161 6.92025 16.3562C6.81591 16.3963 6.70225 16.4055 6.5928 16.3829C6.48334 16.3602 6.3827 16.3066 6.30285 16.2284C6.223 16.1502 6.1673 16.0506 6.14238 15.9417L5.3097 12.2971C5.29948 12.2524 5.30263 12.2058 5.31877 12.1629C5.3349 12.12 5.3633 12.0828 5.40042 12.056L9.29762 9.23867C9.31385 9.22679 9.32673 9.2109 9.33501 9.19257C9.34329 9.17423 9.34669 9.15407 9.34487 9.13403L9.33864 9.10455C9.3296 9.07984 9.31248 9.0589 9.29004 9.04515C9.26761 9.03139 9.24118 9.02563 9.21506 9.02879L9.18912 9.03472L4.6857 10.708C4.64279 10.7239 4.59617 10.7268 4.55163 10.7163C4.5071 10.7059 4.46661 10.6826 4.43521 10.6493L1.85263 7.91686C1.77576 7.83563 1.72385 7.73402 1.70309 7.62413C1.68233 7.51424 1.69359 7.40069 1.73554 7.29702C1.77748 7.19335 1.84834 7.10392 1.93968 7.03938C2.03102 6.97485 2.13898 6.93792 2.25071 6.93301Z" fill="#4B5768"/>
<path d="M13.1401 6.4448L13.1767 7.26072L13.1772 7.2607L13.1401 6.4448ZM13.6365 7.37335L12.9787 6.88928L12.9784 6.88968L13.6365 7.37335ZM7.18137 16.1568L6.52324 15.6731L6.52296 15.6735L7.18137 16.1568ZM6.14238 15.9417L5.34615 16.1236L5.3462 16.1238L6.14238 15.9417ZM5.3097 12.2971L6.10592 12.1152L6.10587 12.1149L5.3097 12.2971ZM5.40042 12.056L4.92193 11.3941L4.92178 11.3942L5.40042 12.056ZM9.29762 9.23867L9.77612 9.90059L9.78023 9.89757L9.29762 9.23867ZM9.34487 9.13403L10.1583 9.06043L10.1539 9.01233L10.144 8.96508L9.34487 9.13403ZM9.33864 9.10455L10.1377 8.93561L10.1257 8.87869L10.1057 8.82406L9.33864 9.10455ZM9.21506 9.02879L9.11702 8.21795L9.07468 8.22307L9.0331 8.23257L9.21506 9.02879ZM9.18912 9.03472L9.00716 8.2385L8.9549 8.25044L8.90465 8.26912L9.18912 9.03472ZM4.6857 10.708L4.9685 11.4743L4.97017 11.4736L4.6857 10.708ZM4.43521 10.6493L5.02912 10.0887L5.02879 10.0883L4.43521 10.6493ZM1.85263 7.91686L2.44621 7.35584L2.44581 7.35542L1.85263 7.91686ZM2.28729 7.74893L13.1767 7.26072L13.1035 5.62888L2.21413 6.11709L2.28729 7.74893ZM13.1772 7.2607C13.1332 7.2627 13.0895 7.2522 13.0512 7.23041L13.8589 5.8106C13.6292 5.67989 13.3671 5.6169 13.103 5.6289L13.1772 7.2607ZM13.0512 7.23041C13.0129 7.20863 12.9816 7.17645 12.9608 7.13759L14.4014 6.36752C14.2768 6.1344 14.0887 5.94132 13.8589 5.8106L13.0512 7.23041ZM12.9608 7.13759C12.94 7.09874 12.9307 7.0548 12.9339 7.01086L14.5631 7.12795C14.5821 6.86428 14.526 6.60064 14.4014 6.36752L12.9608 7.13759ZM12.9339 7.01086C12.937 6.96691 12.9525 6.92476 12.9787 6.88928L14.2943 7.85743C14.451 7.64452 14.5442 7.39161 14.5631 7.12795L12.9339 7.01086ZM12.9784 6.88968L6.52324 15.6731L7.8395 16.6405L14.2946 7.85702L12.9784 6.88968ZM6.52296 15.6735C6.54942 15.6375 6.58567 15.6098 6.62741 15.5938L7.2131 17.1186C7.46352 17.0225 7.68104 16.8564 7.83978 16.6401L6.52296 15.6735ZM6.62741 15.5938C6.66914 15.5777 6.71461 15.574 6.75839 15.5831L6.4272 17.1827C6.68989 17.237 6.96268 17.2148 7.2131 17.1186L6.62741 15.5938ZM6.75839 15.5831C6.80217 15.5922 6.84243 15.6136 6.87437 15.6449L5.73134 16.8118C5.92298 16.9996 6.16451 17.1283 6.4272 17.1827L6.75839 15.5831ZM6.87437 15.6449C6.90631 15.6762 6.92859 15.716 6.93856 15.7596L5.3462 16.1238C5.40601 16.3853 5.53969 16.6241 5.73134 16.8118L6.87437 15.6449ZM6.9386 15.7598L6.10592 12.1152L4.51347 12.479L5.34615 16.1236L6.9386 15.7598ZM6.10587 12.1149C6.13141 12.2266 6.12353 12.3433 6.08319 12.4505L4.55434 11.8753C4.48174 12.0682 4.46755 12.2783 4.51353 12.4792L6.10587 12.1149ZM6.08319 12.4505C6.04286 12.5577 5.97186 12.6506 5.87906 12.7178L4.92178 11.3942C4.75473 11.515 4.62694 11.6823 4.55434 11.8753L6.08319 12.4505ZM5.87891 12.7179L9.77611 9.90058L8.81913 8.57677L4.92193 11.3941L5.87891 12.7179ZM9.78023 9.89757C9.91008 9.80247 10.0131 9.6754 10.0794 9.52872L8.59065 8.85641C8.64033 8.7464 8.71762 8.6511 8.815 8.57977L9.78023 9.89757ZM10.0794 9.52872C10.1456 9.38204 10.1728 9.22072 10.1583 9.06043L8.53146 9.20763C8.52058 9.08742 8.54097 8.96643 8.59065 8.85641L10.0794 9.52872ZM10.144 8.96508L10.1377 8.93561L8.53956 9.2735L8.5458 9.30298L10.144 8.96508ZM10.1057 8.82406C10.0334 8.62634 9.8964 8.45887 9.71691 8.34884L8.86317 9.74146C8.72856 9.65894 8.6258 9.53333 8.57157 9.38504L10.1057 8.82406ZM9.71691 8.34884C9.53744 8.23881 9.32603 8.19268 9.11702 8.21795L9.31309 9.83963C9.15633 9.85858 8.99778 9.82398 8.86317 9.74146L9.71691 8.34884ZM9.0331 8.23257L9.00716 8.2385L9.37108 9.83093L9.39701 9.825L9.0331 8.23257ZM8.90465 8.26912L4.40123 9.94245L4.97017 11.4736L9.47359 9.80031L8.90465 8.26912ZM4.4029 9.94183C4.51018 9.90223 4.62674 9.89504 4.73808 9.92114L4.36519 11.5115C4.56559 11.5585 4.77539 11.5455 4.9685 11.4743L4.4029 9.94183ZM4.73808 9.92114C4.84941 9.94725 4.95062 10.0055 5.02912 10.0887L3.8413 11.21C3.9826 11.3597 4.16478 11.4645 4.36519 11.5115L4.73808 9.92114ZM5.02879 10.0883L2.44621 7.35584L1.25906 8.47787L3.84164 11.2103L5.02879 10.0883ZM2.44581 7.35542C2.47656 7.38791 2.49733 7.42856 2.50563 7.47251L0.900541 7.77575C0.950367 8.03949 1.07495 8.28335 1.25946 8.47829L2.44581 7.35542ZM2.50563 7.47251C2.51394 7.51647 2.50943 7.56189 2.49265 7.60336L0.978419 6.99069C0.877747 7.2395 0.850715 7.51201 0.900541 7.77575L2.50563 7.47251ZM2.49265 7.60336C2.47587 7.64483 2.44753 7.6806 2.411 7.70641L1.46836 6.37235C1.24916 6.52724 1.07909 6.74187 0.978419 6.99069L2.49265 7.60336ZM2.411 7.70641C2.37446 7.73223 2.33128 7.747 2.28658 7.74896L2.21483 6.11706C1.94668 6.12885 1.68757 6.21746 1.46836 6.37235L2.411 7.70641Z" fill="#4B5768" mask="url(#path-1-inside-1_206_7055)"/>
</g>
<defs>
<clipPath id="clip0_206_7055">
<rect width="13.0679" height="13.0679" fill="white" transform="translate(0.0805664 6.62598) rotate(-28.1271)"/>
</clipPath>
</defs>
</svg>
