<svg width="21" height="20" viewBox="0 0 21 20" fill="none" xmlns="http://www.w3.org/2000/svg">
<path fill-rule="evenodd" clip-rule="evenodd" d="M10.6665 18C15.0848 18 18.6665 14.4183 18.6665 10C18.6665 5.58172 15.0848 2 10.6665 2C6.24823 2 2.6665 5.58172 2.6665 10C2.6665 14.4183 6.24823 18 10.6665 18ZM14.3736 8.70711C14.7641 8.31658 14.7641 7.68342 14.3736 7.29289C13.9831 6.90237 13.3499 6.90237 12.9594 7.29289L9.6665 10.5858L8.37361 9.29289C7.98309 8.90237 7.34992 8.90237 6.9594 9.29289C6.56887 9.68342 6.56887 10.3166 6.9594 10.7071L8.9594 12.7071C9.34992 13.0976 9.98309 13.0976 10.3736 12.7071L14.3736 8.70711Z" fill="#71717A"/>
</svg>
