<svg width="20" height="21" viewBox="0 0 20 21" fill="none" xmlns="http://www.w3.org/2000/svg">
<path d="M16.9699 11.0991C17.1261 10.9428 17.2139 10.7309 17.2139 10.5099C17.2139 10.2889 17.1261 10.077 16.9699 9.92072L12.2557 5.20656C12.1788 5.12696 12.0869 5.06348 11.9852 5.0198C11.8835 4.97613 11.7742 4.95314 11.6635 4.95218C11.5529 4.95122 11.4432 4.9723 11.3408 5.0142C11.2383 5.0561 11.1453 5.11798 11.067 5.19623C10.9888 5.27447 10.9269 5.36751 10.885 5.46993C10.8431 5.57234 10.822 5.68207 10.823 5.79272C10.824 5.90337 10.847 6.01272 10.8906 6.11439C10.9343 6.21606 10.9978 6.30802 11.0774 6.38489L14.369 9.67655L3.33321 9.67655C3.1122 9.67655 2.90024 9.76435 2.74396 9.92063C2.58768 10.0769 2.49988 10.2889 2.49988 10.5099C2.49988 10.7309 2.58768 10.9429 2.74396 11.0991C2.90024 11.2554 3.1122 11.3432 3.33321 11.3432L14.369 11.3432L11.0774 14.6349C10.9256 14.7921 10.8416 15.0026 10.8435 15.2211C10.8454 15.4396 10.933 15.6486 11.0875 15.8031C11.242 15.9576 11.451 16.0452 11.6695 16.0471C11.888 16.049 12.0985 15.965 12.2557 15.8132L16.9699 11.0991Z" fill="url(#paint0_linear_79_33045)"/>
<defs>
<linearGradient id="paint0_linear_79_33045" x1="9.85687" y1="18.3385" x2="9.85687" y2="4.95215" gradientUnits="userSpaceOnUse">
<stop stop-color="#E3626D"/>
<stop offset="1" stop-color="#741ADE"/>
</linearGradient>
</defs>
</svg>
