<svg width="21" height="20" viewBox="0 0 21 20" fill="none" xmlns="http://www.w3.org/2000/svg">
<path d="M17.6369 10.5883C17.7931 10.432 17.8809 10.2201 17.8809 9.99915C17.8809 9.77818 17.7931 9.56625 17.6369 9.40998L12.9227 4.69581C12.8458 4.61622 12.7539 4.55274 12.6522 4.50906C12.5505 4.46539 12.4412 4.4424 12.3305 4.44144C12.2199 4.44048 12.1102 4.46156 12.0077 4.50346C11.9053 4.54536 11.8123 4.60724 11.734 4.68548C11.6558 4.76373 11.5939 4.85677 11.552 4.95918C11.5101 5.0616 11.489 5.17133 11.49 5.28198C11.491 5.39263 11.5139 5.50198 11.5576 5.60365C11.6013 5.70532 11.6648 5.79727 11.7444 5.87415L15.036 9.16581L4.00021 9.16581C3.77919 9.16581 3.56723 9.25361 3.41095 9.40989C3.25467 9.56617 3.16687 9.77813 3.16687 9.99915C3.16687 10.2202 3.25467 10.4321 3.41095 10.5884C3.56723 10.7447 3.77919 10.8325 4.00021 10.8325L15.036 10.8325L11.7444 14.1241C11.5926 14.2813 11.5086 14.4918 11.5105 14.7103C11.5124 14.9288 11.6 15.1378 11.7545 15.2923C11.909 15.4468 12.118 15.5345 12.3365 15.5364C12.555 15.5383 12.7655 15.4543 12.9227 15.3025L17.6369 10.5883Z" fill="url(#paint0_linear_64_4666)"/>
<defs>
<linearGradient id="paint0_linear_64_4666" x1="10.5239" y1="17.8278" x2="10.5239" y2="4.44141" gradientUnits="userSpaceOnUse">
<stop stop-color="#E3626D"/>
<stop offset="1" stop-color="#741ADE"/>
</linearGradient>
</defs>
</svg>
