<svg width="16" height="17" viewBox="0 0 16 17" fill="none" xmlns="http://www.w3.org/2000/svg">
<g clip-path="url(#clip0_206_1685)">
<path d="M8.45625 15.8695L8.44849 15.8708L8.40262 15.8934L8.3897 15.896L8.38066 15.8934L8.33479 15.8701C8.32789 15.8684 8.32273 15.8697 8.31928 15.874L8.3167 15.8805L8.30571 16.157L8.30894 16.1699L8.3154 16.1783L8.38259 16.2261L8.39229 16.2287L8.40004 16.2261L8.46723 16.1783L8.47498 16.168L8.47757 16.157L8.46658 15.8811C8.46486 15.8742 8.46142 15.8703 8.45625 15.8695ZM8.62681 15.7965L8.61776 15.7978L8.49889 15.8579L8.49243 15.8643L8.49049 15.8714L8.50212 16.1492L8.50535 16.157L8.51052 16.1622L8.64038 16.2216C8.64856 16.2237 8.65481 16.222 8.65911 16.2164L8.6617 16.2074L8.63973 15.8107C8.63758 15.8025 8.63327 15.7978 8.62681 15.7965ZM8.16487 15.7978C8.16202 15.796 8.15862 15.7955 8.15537 15.7962C8.15212 15.7969 8.14927 15.7989 8.14742 15.8016L8.14355 15.8107L8.12158 16.2074C8.12201 16.2151 8.12567 16.2203 8.13257 16.2229L8.14226 16.2216L8.27212 16.1615L8.27858 16.1563L8.28052 16.1492L8.29214 15.8714L8.29021 15.8637L8.28375 15.8572L8.16487 15.7978Z" fill="url(#paint0_linear_206_1685)"/>
<path d="M6.20335 4.3634C6.5897 3.23277 8.1519 3.19853 8.60996 4.26067L8.64873 4.36404L9.17011 5.88877C9.28959 6.23844 9.48268 6.55843 9.73634 6.82714C9.99 7.09585 10.2983 7.30703 10.6406 7.44645L10.7808 7.49878L12.3055 8.01951C13.4361 8.40586 13.4704 9.96806 12.4089 10.4261L12.3055 10.4649L10.7808 10.9863C10.431 11.1057 10.1109 11.2987 9.84203 11.5524C9.57321 11.8061 9.36192 12.1144 9.22244 12.4567L9.17011 12.5963L8.64937 14.1217C8.26302 15.2523 6.70082 15.2865 6.2434 14.225L6.20335 14.1217L5.68261 12.5969C5.56321 12.2471 5.37016 11.927 5.11649 11.6582C4.86282 11.3894 4.55444 11.1781 4.21216 11.0386L4.0726 10.9863L2.54788 10.4655C1.41661 10.0792 1.38236 8.51699 2.4445 8.05957L2.54788 8.01951L4.0726 7.49878C4.42228 7.37929 4.74226 7.18621 5.01097 6.93254C5.27968 6.67888 5.49087 6.37054 5.63028 6.02832L5.68261 5.88877L6.20335 4.3634ZM12.5949 2.13574C12.7158 2.13574 12.8342 2.16965 12.9368 2.2336C13.0394 2.29756 13.1219 2.389 13.1751 2.49754L13.2061 2.57313L13.4322 3.236L14.0958 3.46213C14.2169 3.50328 14.3231 3.57946 14.4008 3.68103C14.4786 3.78259 14.5245 3.90496 14.5327 4.03262C14.5408 4.16029 14.5109 4.2875 14.4467 4.39815C14.3825 4.50879 14.2869 4.59788 14.172 4.65413L14.0958 4.68514L13.4329 4.91126L13.2068 5.57478C13.1655 5.69587 13.0893 5.802 12.9877 5.87972C12.8861 5.95744 12.7637 6.00325 12.636 6.01134C12.5084 6.01944 12.3812 5.98946 12.2706 5.92519C12.16 5.86093 12.0709 5.76528 12.0148 5.65037L11.9837 5.57478L11.7576 4.91191L11.0941 4.68579C10.973 4.64463 10.8668 4.56845 10.789 4.46689C10.7112 4.36532 10.6653 4.24296 10.6572 4.11529C10.649 3.98763 10.6789 3.86041 10.7431 3.74977C10.8074 3.63912 10.903 3.55003 11.0179 3.49378L11.0941 3.46277L11.757 3.23665L11.9831 2.57313C12.0267 2.44549 12.1091 2.33467 12.2188 2.25623C12.3285 2.17779 12.4601 2.13566 12.5949 2.13574Z" fill="url(#paint1_linear_206_1685)"/>
</g>
<defs>
<linearGradient id="paint0_linear_206_1685" x1="8.77324" y1="16.0123" x2="8.12158" y2="16.0123" gradientUnits="userSpaceOnUse">
<stop stop-color="#E3626D"/>
<stop offset="1" stop-color="#741ADE"/>
</linearGradient>
<linearGradient id="paint1_linear_206_1685" x1="17.1901" y1="8.56597" x2="1.67285" y2="8.56597" gradientUnits="userSpaceOnUse">
<stop stop-color="#E3626D"/>
<stop offset="1" stop-color="#741ADE"/>
</linearGradient>
<clipPath id="clip0_206_1685">
<rect width="15.5057" height="15.5057" fill="white" transform="translate(0.319824 0.84375)"/>
</clipPath>
</defs>
</svg>
