<svg width="17" height="17" viewBox="0 0 17 17" fill="none" xmlns="http://www.w3.org/2000/svg">
<g clip-path="url(#clip0_206_1677)">
<path d="M8.88984 15.8089L8.88209 15.8102L8.83622 15.8328L8.8233 15.8354L8.81425 15.8328L8.76838 15.8096C8.76149 15.8079 8.75632 15.8092 8.75287 15.8135L8.75029 15.8199L8.73931 16.0964L8.74254 16.1094L8.749 16.1178L8.81619 16.1656L8.82588 16.1682L8.83363 16.1656L8.90082 16.1178L8.90858 16.1074L8.91116 16.0964L8.90018 15.8206C8.89845 15.8137 8.89501 15.8098 8.88984 15.8089ZM9.0604 15.7359L9.05136 15.7372L8.93248 15.7973L8.92602 15.8038L8.92408 15.8109L8.93571 16.0887L8.93894 16.0964L8.94411 16.1016L9.07397 16.161C9.08215 16.1632 9.0884 16.1615 9.09271 16.1559L9.09529 16.1468L9.07332 15.7501C9.07117 15.742 9.06686 15.7372 9.0604 15.7359ZM8.59846 15.7372C8.59562 15.7355 8.59221 15.7349 8.58896 15.7357C8.58571 15.7364 8.58287 15.7383 8.58102 15.7411L8.57714 15.7501L8.55518 16.1468C8.55561 16.1546 8.55927 16.1598 8.56616 16.1623L8.57585 16.161L8.70571 16.101L8.71217 16.0958L8.71411 16.0887L8.72574 15.8109L8.7238 15.8031L8.71734 15.7967L8.59846 15.7372Z" fill="url(#paint0_linear_206_1677)"/>
<path d="M6.63694 4.30285C7.02329 3.17222 8.58549 3.13798 9.04356 4.20012L9.08232 4.30349L9.6037 5.82822C9.72319 6.1779 9.91627 6.49788 10.1699 6.76659C10.4236 7.0353 10.7319 7.24649 11.0742 7.3859L11.2144 7.43823L12.7391 7.95897C13.8697 8.34532 13.9039 9.90752 12.8425 10.3656L12.7391 10.4043L11.2144 10.9257C10.8646 11.0451 10.5444 11.2382 10.2756 11.4918C10.0068 11.7455 9.79552 12.0539 9.65603 12.3962L9.6037 12.5357L9.08297 14.0611C8.69662 15.1917 7.13441 15.226 6.677 14.1645L6.63694 14.0611L6.11621 12.5364C5.9968 12.1866 5.80375 11.8665 5.55008 11.5976C5.29641 11.3288 4.98803 11.1175 4.64575 10.9781L4.5062 10.9257L2.98147 10.405C1.8502 10.0186 1.81596 8.45644 2.8781 7.99902L2.98147 7.95897L4.5062 7.43823C4.85587 7.31875 5.17586 7.12566 5.44457 6.872C5.71328 6.61833 5.92446 6.30999 6.06388 5.96777L6.11621 5.82822L6.63694 4.30285ZM13.0285 2.0752C13.1494 2.0752 13.2678 2.1091 13.3704 2.17306C13.473 2.23701 13.5555 2.32846 13.6087 2.437L13.6397 2.51259L13.8658 3.17545L14.5293 3.40158C14.6505 3.44273 14.7567 3.51892 14.8344 3.62048C14.9122 3.72204 14.9581 3.84441 14.9663 3.97207C14.9744 4.09974 14.9445 4.22696 14.8803 4.3376C14.8161 4.44824 14.7205 4.53733 14.6056 4.59358L14.5293 4.62459L13.8665 4.85072L13.6404 5.51423C13.5991 5.63532 13.5229 5.74145 13.4213 5.81917C13.3197 5.89689 13.1973 5.9427 13.0696 5.9508C12.942 5.95889 12.8148 5.92891 12.7042 5.86465C12.5936 5.80039 12.5045 5.70474 12.4483 5.58982L12.4173 5.51423L12.1912 4.85136L11.5277 4.62524C11.4066 4.58409 11.3004 4.5079 11.2226 4.40634C11.1448 4.30478 11.0989 4.18241 11.0908 4.05474C11.0826 3.92708 11.1125 3.79986 11.1767 3.68922C11.241 3.57857 11.3366 3.48948 11.4515 3.43324L11.5277 3.40223L12.1906 3.1761L12.4167 2.51259C12.4603 2.38494 12.5427 2.27413 12.6524 2.19569C12.7621 2.11725 12.8936 2.07511 13.0285 2.0752Z" fill="url(#paint1_linear_206_1677)"/>
</g>
<defs>
<linearGradient id="paint0_linear_206_1677" x1="9.20684" y1="15.9518" x2="8.55518" y2="15.9518" gradientUnits="userSpaceOnUse">
<stop stop-color="#E3626D"/>
<stop offset="1" stop-color="#741ADE"/>
</linearGradient>
<linearGradient id="paint1_linear_206_1677" x1="17.6237" y1="8.50542" x2="2.10645" y2="8.50542" gradientUnits="userSpaceOnUse">
<stop stop-color="#E3626D"/>
<stop offset="1" stop-color="#741ADE"/>
</linearGradient>
<clipPath id="clip0_206_1677">
<rect width="15.5057" height="15.5057" fill="white" transform="translate(0.75293 0.783203)"/>
</clipPath>
</defs>
</svg>
