<svg width="17" height="17" viewBox="0 0 17 17" fill="none" xmlns="http://www.w3.org/2000/svg">
<g clip-path="url(#clip0_206_1632)">
<path d="M8.75361 15.8246L8.74586 15.8259L8.69999 15.8485L8.68706 15.8511L8.67802 15.8485L8.63215 15.8252C8.62526 15.8235 8.62009 15.8248 8.61664 15.8291L8.61406 15.8355L8.60308 16.1121L8.60631 16.125L8.61277 16.1334L8.67996 16.1812L8.68965 16.1838L8.6974 16.1812L8.76459 16.1334L8.77235 16.123L8.77493 16.1121L8.76395 15.8362C8.76222 15.8293 8.75878 15.8254 8.75361 15.8246ZM8.92417 15.7516L8.91513 15.7528L8.79625 15.8129L8.78979 15.8194L8.78785 15.8265L8.79948 16.1043L8.80271 16.1121L8.80788 16.1172L8.93774 16.1767C8.94592 16.1788 8.95217 16.1771 8.95648 16.1715L8.95906 16.1625L8.93709 15.7658C8.93494 15.7576 8.93063 15.7528 8.92417 15.7516ZM8.46223 15.7528C8.45938 15.7511 8.45598 15.7506 8.45273 15.7513C8.44948 15.752 8.44664 15.754 8.44479 15.7567L8.44091 15.7658L8.41895 16.1625C8.41938 16.1702 8.42304 16.1754 8.42993 16.178L8.43962 16.1767L8.56948 16.1166L8.57594 16.1114L8.57788 16.1043L8.58951 15.8265L8.58757 15.8187L8.58111 15.8123L8.46223 15.7528Z" fill="url(#paint0_linear_206_1632)"/>
<path d="M6.50071 4.31847C6.88706 3.18785 8.44926 3.15361 8.90732 4.21575L8.94609 4.31912L9.46747 5.84385C9.58696 6.19352 9.78004 6.51351 10.0337 6.78222C10.2874 7.05093 10.5957 7.26211 10.9379 7.40153L11.0781 7.45386L12.6029 7.97459C13.7335 8.36094 13.7677 9.92314 12.7062 10.3812L12.6029 10.42L11.0781 10.9413C10.7283 11.0608 10.4082 11.2538 10.1394 11.5075C9.87057 11.7611 9.65928 12.0695 9.5198 12.4118L9.46747 12.5514L8.94674 14.0767C8.56038 15.2074 6.99818 15.2416 6.54077 14.1801L6.50071 14.0767L5.97998 12.552C5.86057 12.2022 5.66752 11.8821 5.41385 11.6133C5.16018 11.3444 4.8518 11.1332 4.50952 10.9937L4.36997 10.9413L2.84524 10.4206C1.71397 10.0343 1.67973 8.47206 2.74187 8.01465L2.84524 7.97459L4.36997 7.45386C4.71964 7.33437 5.03963 7.14128 5.30834 6.88762C5.57705 6.63396 5.78823 6.32562 5.92764 5.9834L5.97998 5.84385L6.50071 4.31847ZM12.8923 2.09082C13.0132 2.09082 13.1316 2.12473 13.2342 2.18868C13.3367 2.25264 13.4193 2.34408 13.4725 2.45262L13.5035 2.52821L13.7296 3.19108L14.3931 3.4172C14.5142 3.45836 14.6204 3.53454 14.6982 3.6361C14.776 3.73767 14.8219 3.86003 14.83 3.9877C14.8382 4.11536 14.8083 4.24258 14.7441 4.35322C14.6799 4.46387 14.5842 4.55296 14.4694 4.60921L14.3931 4.64022L13.7302 4.86634L13.5041 5.52986C13.4629 5.65095 13.3867 5.75708 13.2851 5.8348C13.1835 5.91252 13.0611 5.95833 12.9334 5.96642C12.8057 5.97452 12.6786 5.94453 12.568 5.88027C12.4573 5.81601 12.3683 5.72036 12.3121 5.60545L12.2811 5.52986L12.055 4.86699L11.3915 4.64086C11.2703 4.59971 11.1642 4.52353 11.0864 4.42196C11.0086 4.3204 10.9627 4.19803 10.9545 4.07037C10.9464 3.9427 10.9763 3.81549 11.0405 3.70484C11.1047 3.5942 11.2003 3.50511 11.3152 3.44886L11.3915 3.41785L12.0543 3.19173L12.2805 2.52821C12.324 2.40056 12.4064 2.28975 12.5162 2.21131C12.6259 2.13287 12.7574 2.09074 12.8923 2.09082Z" fill="url(#paint1_linear_206_1632)"/>
</g>
<defs>
<linearGradient id="paint0_linear_206_1632" x1="9.07061" y1="15.9674" x2="8.41895" y2="15.9674" gradientUnits="userSpaceOnUse">
<stop stop-color="#E3626D"/>
<stop offset="1" stop-color="#741ADE"/>
</linearGradient>
<linearGradient id="paint1_linear_206_1632" x1="17.4875" y1="8.52105" x2="1.97021" y2="8.52105" gradientUnits="userSpaceOnUse">
<stop stop-color="#E3626D"/>
<stop offset="1" stop-color="#741ADE"/>
</linearGradient>
<clipPath id="clip0_206_1632">
<rect width="15.5057" height="15.5057" fill="white" transform="translate(0.616699 0.798828)"/>
</clipPath>
</defs>
</svg>
