<svg width="16" height="17" viewBox="0 0 16 17" fill="none" xmlns="http://www.w3.org/2000/svg">
<g clip-path="url(#clip0_206_1646)">
<path d="M8.20722 15.8343L8.19947 15.8356L8.1536 15.8582L8.14068 15.8608L8.13163 15.8582L8.08576 15.835C8.07887 15.8333 8.0737 15.8345 8.07026 15.8388L8.06767 15.8453L8.05669 16.1218L8.05992 16.1347L8.06638 16.1431L8.13357 16.191L8.14326 16.1935L8.15102 16.191L8.21821 16.1431L8.22596 16.1328L8.22854 16.1218L8.21756 15.846C8.21584 15.8391 8.21239 15.8352 8.20722 15.8343ZM8.37779 15.7613L8.36874 15.7626L8.24986 15.8227L8.2434 15.8292L8.24147 15.8363L8.25309 16.1141L8.25632 16.1218L8.26149 16.127L8.39135 16.1864C8.39954 16.1886 8.40578 16.1869 8.41009 16.1813L8.41267 16.1722L8.39071 15.7755C8.38855 15.7674 8.38425 15.7626 8.37779 15.7613ZM7.91584 15.7626C7.913 15.7609 7.9096 15.7603 7.90635 15.7611C7.9031 15.7618 7.90025 15.7637 7.8984 15.7665L7.89452 15.7755L7.87256 16.1722C7.87299 16.18 7.87665 16.1851 7.88354 16.1877L7.89323 16.1864L8.02309 16.1264L8.02955 16.1212L8.03149 16.1141L8.04312 15.8363L8.04118 15.8285L8.03472 15.8221L7.91584 15.7626Z" fill="url(#paint0_linear_206_1646)"/>
<path d="M5.95432 4.32824C6.34067 3.19761 7.90287 3.16337 8.36094 4.22551L8.3997 4.32889L8.92108 5.85361C9.04057 6.20329 9.23365 6.52327 9.48732 6.79198C9.74098 7.06069 10.0493 7.27188 10.3915 7.41129L10.5317 7.46362L12.0565 7.98436C13.1871 8.37071 13.2213 9.93291 12.1598 10.391L12.0565 10.4297L10.5317 10.9511C10.1819 11.0705 9.86183 11.2636 9.59301 11.5172C9.32418 11.7709 9.1129 12.0793 8.97341 12.4216L8.92108 12.5611L8.40035 14.0865C8.014 15.2171 6.4518 15.2514 5.99438 14.1899L5.95432 14.0865L5.43359 12.5618C5.31418 12.212 5.12113 11.8919 4.86746 11.623C4.6138 11.3542 4.30542 11.1429 3.96313 11.0034L3.82358 10.9511L2.29885 10.4304C1.16758 10.044 1.13334 8.48183 2.19548 8.02441L2.29885 7.98436L3.82358 7.46362C4.17326 7.34414 4.49324 7.15105 4.76195 6.89739C5.03066 6.64372 5.24184 6.33538 5.38126 5.99316L5.43359 5.85361L5.95432 4.32824ZM12.3459 2.10059C12.4668 2.10059 12.5852 2.13449 12.6878 2.19845C12.7903 2.2624 12.8729 2.35385 12.9261 2.46239L12.9571 2.53798L13.1832 3.20085L13.8467 3.42697C13.9679 3.46812 14.074 3.54431 14.1518 3.64587C14.2296 3.74743 14.2755 3.8698 14.2837 3.99746C14.2918 4.12513 14.2619 4.25235 14.1977 4.36299C14.1335 4.47363 14.0379 4.56272 13.923 4.61897L13.8467 4.64998L13.1839 4.87611L12.9577 5.53962C12.9165 5.66071 12.8403 5.76684 12.7387 5.84456C12.6371 5.92228 12.5147 5.96809 12.387 5.97619C12.2594 5.98428 12.1322 5.9543 12.0216 5.89004C11.911 5.82578 11.8219 5.73013 11.7657 5.61521L11.7347 5.53962L11.5086 4.87675L10.8451 4.65063C10.724 4.60948 10.6178 4.53329 10.54 4.43173C10.4622 4.33017 10.4163 4.2078 10.4082 4.08013C10.4 3.95247 10.4299 3.82525 10.4941 3.71461C10.5583 3.60397 10.6539 3.51487 10.7688 3.45863L10.8451 3.42762L11.5079 3.20149L11.7341 2.53798C11.7776 2.41033 11.8601 2.29952 11.9698 2.22108C12.0795 2.14264 12.211 2.1005 12.3459 2.10059Z" fill="url(#paint1_linear_206_1646)"/>
</g>
<defs>
<linearGradient id="paint0_linear_206_1646" x1="8.52422" y1="15.9771" x2="7.87256" y2="15.9771" gradientUnits="userSpaceOnUse">
<stop stop-color="#E3626D"/>
<stop offset="1" stop-color="#741ADE"/>
</linearGradient>
<linearGradient id="paint1_linear_206_1646" x1="16.9411" y1="8.53081" x2="1.42383" y2="8.53081" gradientUnits="userSpaceOnUse">
<stop stop-color="#E3626D"/>
<stop offset="1" stop-color="#741ADE"/>
</linearGradient>
<clipPath id="clip0_206_1646">
<rect width="15.5057" height="15.5057" fill="white" transform="translate(0.0703125 0.808594)"/>
</clipPath>
</defs>
</svg>
