<svg width="20" height="20" viewBox="0 0 20 20" fill="none" xmlns="http://www.w3.org/2000/svg">
<path d="M16.9699 10.5883C17.1261 10.432 17.2139 10.2201 17.2139 9.99915C17.2139 9.77818 17.1261 9.56625 16.9699 9.40998L12.2557 4.69581C12.1788 4.61622 12.0869 4.55274 11.9852 4.50906C11.8835 4.46539 11.7742 4.4424 11.6635 4.44144C11.5529 4.44048 11.4432 4.46156 11.3408 4.50346C11.2383 4.54536 11.1453 4.60724 11.067 4.68548C10.9888 4.76373 10.9269 4.85677 10.885 4.95918C10.8431 5.0616 10.822 5.17133 10.823 5.28198C10.824 5.39263 10.847 5.50198 10.8906 5.60365C10.9343 5.70532 10.9978 5.79727 11.0774 5.87415L14.369 9.16581L3.33321 9.16581C3.1122 9.16581 2.90024 9.25361 2.74396 9.40989C2.58768 9.56617 2.49988 9.77813 2.49988 9.99915C2.49988 10.2202 2.58768 10.4321 2.74396 10.5884C2.90024 10.7447 3.1122 10.8325 3.33321 10.8325L14.369 10.8325L11.0774 14.1241C10.9256 14.2813 10.8416 14.4918 10.8435 14.7103C10.8454 14.9288 10.933 15.1378 11.0875 15.2923C11.242 15.4468 11.451 15.5345 11.6695 15.5364C11.888 15.5383 12.0985 15.4543 12.2557 15.3025L16.9699 10.5883Z" fill="white"/>
</svg>
