<svg width="21" height="20" viewBox="0 0 21 20" fill="none" xmlns="http://www.w3.org/2000/svg">
<path d="M17.3034 10.5883C17.4596 10.432 17.5474 10.2201 17.5474 9.99915C17.5474 9.77818 17.4596 9.56625 17.3034 9.40998L12.5892 4.69581C12.5123 4.61622 12.4204 4.55274 12.3187 4.50906C12.217 4.46539 12.1077 4.4424 11.997 4.44144C11.8864 4.44048 11.7767 4.46156 11.6742 4.50346C11.5718 4.54536 11.4788 4.60724 11.4005 4.68548C11.3223 4.76373 11.2604 4.85677 11.2185 4.95918C11.1766 5.0616 11.1555 5.17133 11.1565 5.28198C11.1575 5.39263 11.1804 5.50198 11.2241 5.60365C11.2678 5.70532 11.3313 5.79727 11.4109 5.87415L14.7025 9.16581L3.66671 9.16581C3.4457 9.16581 3.23373 9.25361 3.07745 9.40989C2.92117 9.56617 2.83338 9.77813 2.83338 9.99915C2.83338 10.2202 2.92117 10.4321 3.07745 10.5884C3.23373 10.7447 3.4457 10.8325 3.66671 10.8325L14.7025 10.8325L11.4109 14.1241C11.2591 14.2813 11.1751 14.4918 11.177 14.7103C11.1789 14.9288 11.2665 15.1378 11.421 15.2923C11.5755 15.4468 11.7845 15.5345 12.003 15.5364C12.2215 15.5383 12.432 15.4543 12.5892 15.3025L17.3034 10.5883Z" fill="white"/>
</svg>
