<svg width="21" height="20" viewBox="0 0 21 20" fill="none" xmlns="http://www.w3.org/2000/svg">
<path d="M17.4699 10.5893C17.6261 10.433 17.7139 10.2211 17.7139 10.0001C17.7139 9.77915 17.6261 9.56723 17.4699 9.41096L12.7557 4.69679C12.6788 4.6172 12.5869 4.55371 12.4852 4.51004C12.3835 4.46636 12.2742 4.44338 12.1635 4.44241C12.0529 4.44145 11.9432 4.46254 11.8408 4.50444C11.7383 4.54634 11.6453 4.60822 11.567 4.68646C11.4888 4.7647 11.4269 4.85775 11.385 4.96016C11.3431 5.06257 11.322 5.17231 11.323 5.28296C11.324 5.39361 11.347 5.50296 11.3906 5.60463C11.4343 5.7063 11.4978 5.79825 11.5774 5.87512L14.869 9.16679L3.83321 9.16679C3.6122 9.16679 3.40024 9.25459 3.24396 9.41087C3.08768 9.56715 2.99988 9.77911 2.99988 10.0001C2.99988 10.2211 3.08768 10.4331 3.24396 10.5894C3.40024 10.7457 3.6122 10.8335 3.83321 10.8335L14.869 10.8335L11.5774 14.1251C11.4256 14.2823 11.3416 14.4928 11.3435 14.7113C11.3454 14.9298 11.433 15.1388 11.5875 15.2933C11.742 15.4478 11.951 15.5355 12.1695 15.5374C12.388 15.5392 12.5985 15.4553 12.7557 15.3035L17.4699 10.5893Z" fill="white"/>
</svg>
