<svg width="8" height="13" viewBox="0 0 8 13" fill="none" xmlns="http://www.w3.org/2000/svg">
<path fill-rule="evenodd" clip-rule="evenodd" d="M4.80699 12.9195C4.86144 12.9267 4.91587 12.9341 4.97028 12.9417L5.24378 12.9801C6.43461 13.1472 7.50002 12.2396 7.50002 11.058V10.1562C7.50002 9.31117 6.9592 8.55734 6.14901 8.27312C5.21295 7.94474 4.24659 7.73092 3.27107 7.63168C4.28895 8.36761 4.92029 9.55931 4.92029 10.8594V11.979C4.92029 12.3042 4.88094 12.619 4.80699 12.9195ZM0.681152 6.43204C1.0868 6.59951 1.53241 6.69206 2.00002 6.69206C3.88133 6.69206 5.40644 5.19399 5.40644 3.34603C5.40644 1.49807 3.88133 0 2.00002 0C1.94428 0 1.88886 0.00131476 1.83379 0.00391443C2.1759 0.732525 2.36709 1.54606 2.36709 2.40426C2.36709 3.98076 1.7219 5.40657 0.681152 6.43204Z" fill="#747E87"/>
</svg>
