<svg width="8" height="13" viewBox="0 0 8 13" fill="none" xmlns="http://www.w3.org/2000/svg">
<path fill-rule="evenodd" clip-rule="evenodd" d="M3.57387 12.9195C3.51942 12.9267 3.46499 12.9341 3.41058 12.9417L3.13707 12.9801C1.94625 13.1472 0.880836 12.2396 0.880836 11.058V10.1562C0.880836 9.31117 1.42166 8.55734 2.23185 8.27312C3.16791 7.94474 4.13427 7.73092 5.10979 7.63168C4.09191 8.36761 3.46057 9.55931 3.46057 10.8594V11.979C3.46057 12.3042 3.49992 12.619 3.57387 12.9195ZM7.69971 6.43204C7.29406 6.59951 6.84845 6.69206 6.38084 6.69206C4.49952 6.69206 2.97442 5.19399 2.97442 3.34603C2.97442 1.49807 4.49952 0 6.38084 0C6.43657 0 6.492 0.00131476 6.54707 0.00391443C6.20496 0.732525 6.01377 1.54606 6.01377 2.40426C6.01377 3.98076 6.65896 5.40657 7.69971 6.43204Z" fill="#747E87"/>
</svg>
