<svg width="26" height="26" viewBox="0 0 26 26" fill="none" xmlns="http://www.w3.org/2000/svg">
<path fill-rule="evenodd" clip-rule="evenodd" d="M2.7002 17.8759C2.7002 17.478 2.86182 17.0972 3.14801 16.8208L4.223 15.7825C4.63221 15.3872 4.86257 14.8422 4.86086 14.2733L4.85097 10.9792C4.83713 6.37045 8.56941 2.62695 13.1782 2.62695C17.7772 2.62695 21.5055 6.35519 21.5055 10.9542L21.5055 14.2983C21.5055 14.8525 21.7256 15.3839 22.1175 15.7758L23.1622 16.8205C23.4393 17.0976 23.5949 17.4734 23.5949 17.8653C23.5949 18.6813 22.9335 19.3428 22.1175 19.3428H17.3265C17.3265 21.6507 15.4555 23.5217 13.1476 23.5217C10.8396 23.5217 8.96862 21.6507 8.96862 19.3428H4.16709C3.35695 19.3428 2.7002 18.686 2.7002 17.8759ZM11.0581 19.3428C11.0581 20.4967 11.9936 21.4322 13.1476 21.4322C14.3016 21.4322 15.237 20.4967 15.237 19.3428H11.0581ZM19.416 14.2983C19.416 15.4066 19.8563 16.4696 20.64 17.2533L5.70748 17.2533C6.50536 16.4655 6.95369 15.3895 6.95032 14.267L6.94044 10.9729C6.93007 7.52061 9.72585 4.71643 13.1782 4.71643C16.6232 4.71643 19.416 7.50918 19.416 10.9542L19.416 14.2983Z" fill="#777E90"/>
</svg>
