<svg width="26" height="26" viewBox="0 0 26 26" fill="none" xmlns="http://www.w3.org/2000/svg">
<path fill-rule="evenodd" clip-rule="evenodd" d="M2.86035 17.5804C2.86035 17.1864 3.02038 16.8094 3.30373 16.5357L4.36808 15.5077C4.77324 15.1164 5.00132 14.5767 4.99962 14.0135L4.98983 10.752C4.97614 6.18886 8.67147 2.48242 13.2346 2.48242C17.7881 2.48242 21.4795 6.17375 21.4795 10.7272L21.4795 14.0382C21.4795 14.5869 21.6974 15.1131 22.0854 15.5011L23.1198 16.5355C23.3941 16.8098 23.5482 17.1819 23.5482 17.5699C23.5482 18.3778 22.8933 19.0327 22.0854 19.0327H17.3419C17.3419 21.3179 15.4894 23.1703 13.2043 23.1703C10.9192 23.1703 9.06672 21.3179 9.06672 19.0327H4.31272C3.5106 19.0327 2.86035 18.3825 2.86035 17.5804ZM11.1355 19.0327C11.1355 20.1753 12.0617 21.1015 13.2043 21.1015C14.3469 21.1015 15.2731 20.1753 15.2731 19.0327H11.1355ZM19.4107 14.0382C19.4107 15.1356 19.8466 16.188 20.6225 16.9639L5.83786 16.964C6.62785 16.184 7.07174 15.1187 7.0684 14.0072L7.05861 10.7458C7.04835 7.32763 9.81645 4.55121 13.2346 4.55121C16.6456 4.55121 19.4107 7.31632 19.4107 10.7272L19.4107 14.0382Z" fill="#777E90"/>
</svg>
