<svg width="78" height="53" viewBox="0 0 78 53" fill="none" xmlns="http://www.w3.org/2000/svg">
<path d="M1.45564 1.11039C1.45566 0.753574 1.16642 0.464301 0.809608 0.46428C0.452793 0.46426 0.16352 0.753499 0.163499 1.11031L1.45564 1.11039ZM70.6918 48.5966C70.6918 50.4996 72.2345 52.0423 74.1375 52.0423C76.0405 52.0423 77.5832 50.4996 77.5832 48.5966C77.5832 46.6936 76.0405 45.1509 74.1375 45.1509C72.2345 45.1509 70.6918 46.6936 70.6918 48.5966ZM0.163499 1.11031C0.162803 13.0974 5.25972 25.1607 17.0932 34.2098C28.912 43.2477 47.3998 49.2427 74.1375 49.2427V47.9505C47.5756 47.9505 29.3987 41.9932 17.8781 33.1834C6.3722 24.3847 1.45497 12.7049 1.45564 1.11039L0.163499 1.11031Z" fill="white"/>
</svg>
