<svg width="61" height="140" viewBox="0 0 61 140" fill="none" xmlns="http://www.w3.org/2000/svg">
<path d="M59.8034 139.605C60.1433 139.713 60.5069 139.526 60.6154 139.186C60.724 138.846 60.5365 138.482 60.1966 138.374L59.8034 139.605ZM16.0479 3.98926C16.0479 5.89227 17.5906 7.43497 19.4936 7.43497C21.3966 7.43497 22.9393 5.89227 22.9393 3.98926C22.9393 2.08624 21.3966 0.543545 19.4936 0.543545C17.5906 0.543545 16.0479 2.08624 16.0479 3.98926ZM60.1966 138.374C43.6895 133.101 21.8908 120.068 10.1021 98.15C-1.66022 76.2814 -3.53201 45.4256 20.054 4.31074L18.9332 3.66777C-4.82263 45.0787 -3.05516 76.4158 8.96416 98.7621C20.9572 121.06 43.0826 134.263 59.8034 139.605L60.1966 138.374Z" fill="white"/>
</svg>
