<svg width="38" height="96" viewBox="0 0 38 96" fill="none" xmlns="http://www.w3.org/2000/svg">
<path d="M36.3536 0.989285C36.3536 0.63247 36.6429 0.343202 36.9997 0.343187C37.3565 0.343172 37.6458 0.632415 37.6458 0.98923L36.3536 0.989285ZM7.19486 92.5C7.19486 94.403 5.65216 95.9457 3.74915 95.9457C1.84613 95.9457 0.303436 94.403 0.303436 92.5C0.303436 90.597 1.84613 89.0543 3.74915 89.0543C5.65216 89.0543 7.19486 90.597 7.19486 92.5ZM37.6458 0.98923C37.6463 12.8433 39.1494 35.8223 35.7307 55.7924C34.0205 65.7822 31.068 75.1019 26.0235 81.9371C20.9552 88.8046 13.7843 93.1461 3.74915 93.1461V91.8539C13.3394 91.8539 20.1377 87.7362 24.9838 81.1698C29.8536 74.5713 32.7608 65.4827 34.4571 55.5744C37.8511 35.7483 36.3542 12.9719 36.3536 0.989285L37.6458 0.98923Z" fill="white"/>
</svg>
