<svg width="66" height="48" viewBox="0 0 66 48" fill="none" xmlns="http://www.w3.org/2000/svg">
<path d="M0.159593 46.6083C0.159595 46.9651 0.448852 47.2543 0.805667 47.2543C1.16248 47.2543 1.45174 46.9651 1.45174 46.6082L0.159593 46.6083ZM58.5543 4C58.5543 5.90301 60.097 7.44571 62.0001 7.44571C63.9031 7.44571 65.4458 5.90301 65.4458 4C65.4458 2.09699 63.9031 0.554287 62.0001 0.554287C60.097 0.554287 58.5543 2.09699 58.5543 4ZM1.45174 46.6082C1.45163 26.5005 23.1939 4.64607 62.0001 4.64607V3.35393C22.8063 3.35393 0.159485 25.4995 0.159593 46.6083L1.45174 46.6082Z" fill="white"/>
</svg>
