<svg width="86" height="72" viewBox="0 0 86 72" fill="none" xmlns="http://www.w3.org/2000/svg">
<path d="M84.1595 71.1622C84.1595 71.519 84.4488 71.8083 84.8056 71.8083C85.1624 71.8083 85.4517 71.519 85.4517 71.1622H84.1595ZM0.554287 3.91016C0.554287 5.81317 2.09699 7.35587 4 7.35587C5.90301 7.35587 7.44571 5.81317 7.44571 3.91016C7.44571 2.00714 5.90301 0.464443 4 0.464443C2.09699 0.464443 0.554287 2.00714 0.554287 3.91016ZM85.4517 71.1622C85.4517 42.9886 69.8113 25.9876 51.8401 16.0636C33.8989 6.15618 13.585 3.26409 4 3.26409V4.55623C13.415 4.55623 33.5039 7.41414 51.2155 17.1947C68.897 26.9587 84.1595 43.5838 84.1595 71.1622H85.4517Z" fill="white"/>
</svg>
