<svg width="71" height="40" viewBox="0 0 71 40" fill="none" xmlns="http://www.w3.org/2000/svg">
<path d="M69.3798 39.172C69.4803 39.5143 69.8394 39.7104 70.1817 39.6098C70.5241 39.5093 70.7201 39.1503 70.6196 38.8079L69.3798 39.172ZM0.288662 10.0003C0.288662 11.9033 1.83136 13.446 3.73438 13.446C5.63739 13.446 7.18009 11.9033 7.18009 10.0003C7.18009 8.09727 5.63739 6.55457 3.73438 6.55457C1.83136 6.55457 0.288662 8.09727 0.288662 10.0003ZM70.6196 38.8079C68.614 31.978 64.9358 22.9215 58.9715 15.332C53.0015 7.73513 44.7079 1.57098 33.4937 0.647457L33.3876 1.93524C44.1398 2.82071 52.1337 8.72211 57.9556 16.1304C63.7832 23.5461 67.4013 32.4344 69.3798 39.172L70.6196 38.8079ZM33.4937 0.647457C22.441 -0.262761 15.7085 1.09929 11.3014 3.15723C6.89654 5.21408 4.85726 7.96345 3.2775 9.54348L4.19125 10.4571C5.87712 8.77094 7.70777 6.26134 11.8481 4.32802C15.986 2.39579 22.4739 1.03646 33.3876 1.93524L33.4937 0.647457Z" fill="white"/>
</svg>
