<svg width="14" height="17" viewBox="0 0 14 17" fill="none" xmlns="http://www.w3.org/2000/svg">
<path fill-rule="evenodd" clip-rule="evenodd" d="M10.8671 4.40426C10.8671 2.10992 9.00714 0.25 6.71281 0.25C4.41848 0.25 2.55856 2.10992 2.55856 4.40426C2.55856 6.69859 4.41848 8.55851 6.71281 8.55851C9.00714 8.55851 10.8671 6.69859 10.8671 4.40426Z" fill="#747E87"/>
<path fill-rule="evenodd" clip-rule="evenodd" d="M1.65298 10.5215C4.925 9.35288 8.50064 9.35288 11.7727 10.5215C12.7607 10.8743 13.4203 11.8103 13.4203 12.8594V13.979C13.4203 15.446 12.121 16.5729 10.6687 16.3654L10.3351 16.3178C7.93246 15.9745 5.49318 15.9745 3.09049 16.3178L2.75693 16.3654C1.30468 16.5729 0.00537109 15.446 0.00537109 13.979V12.8594C0.00537109 11.8103 0.664925 10.8743 1.65298 10.5215Z" fill="#747E87"/>
</svg>
